 <svg  version="1.0" xmlns="http://www.w3.org/2000/svg"  width="900.000000pt" height="900.000000pt" viewBox="0 0 900.000000 900.000000"  preserveAspectRatio="xMidYMid meet">  <g transform="translate(0.000000,900.000000) scale(0.100000,-0.100000)" fill="#5977e8" stroke="none"> <path d="M4719 7207 c-15 -12 -39 -31 -54 -42 -99 -71 -287 -258 -427 -425 -49 -58 -217 -308 -259 -385 -166 -304 -267 -590 -314 -892 -9 -60 -19 -118 -21 -129 -3 -19 -13 -23 -76 -29 -301 -28 -596 -228 -745 -505 -58 -108 -103 -282 -103 -400 0 -87 32 -252 66 -338 77 -194 219 -370 377 -469 83 -52 89 -42 22 30 -70 75 -173 238 -195 307 -5 14 -18 50 -30 80 -62 161 -65 389 -7 540 82 216 253 403 458 502 63 30 195 78 216 78 7 0 16 -12 19 -27 6 -24 28 -69 89 -184 12 -23 35 -25 35 -3 0 20 54 213 87 314 14 41 29 89 33 105 9 34 53 160 75 218 8 20 22 56 31 80 19 50 18 46 90 217 112 267 298 625 441 849 53 83 59 69 99 -238 18 -141 15 -521 -6 -646 -21 -126 -60 -319 -75 -375 -29 -102 -33 -115 -55 -170 -12 -30 -25 -66 -30 -80 -4 -14 -17 -47 -29 -73 -22 -51 -30 -103 -9 -59 6 12 15 22 19 22 15 0 158 258 227 410 35 77 92 243 123 355 118 437 116 940 -7 1368 -7 23 -34 21 -65 -6z"/> <path d="M5610 6515 c-166 -26 -298 -68 -469 -147 -44 -21 -60 -32 -51 -38 7 -5 23 -4 36 0 12 5 75 19 140 31 138 25 473 34 495 12 9 -9 7 -33 -5 -105 -18 -95 -20 -103 -55 -218 -39 -128 -111 -304 -151 -370 -5 -8 -31 -51 -57 -95 -152 -258 -394 -504 -673 -682 -69 -44 -278 -153 -294 -153 -5 0 -18 -7 -27 -16 -18 -16 -16 -19 28 -68 66 -74 107 -169 120 -286 l9 -75 18 40 c20 44 17 111 -8 183 -17 48 -17 48 69 87 114 51 280 139 306 161 8 8 19 14 23 14 4 0 42 26 84 59 276 210 467 429 596 686 88 175 123 268 161 430 38 164 68 500 49 549 -5 14 -26 16 -133 15 -69 -1 -164 -7 -211 -14z"/> <path d="M3171 4684 c-35 -25 -53 -75 -40 -113 21 -59 70 -67 124 -20 28 25 35 38 35 68 0 51 -23 81 -63 81 -18 0 -43 -7 -56 -16z"/> <path d="M4325 4109 c-60 -10 -120 -24 -133 -29 -13 -6 -31 -10 -40 -10 -9 0 -30 -7 -46 -15 -15 -8 -35 -15 -43 -15 -8 0 -27 -7 -41 -15 -15 -8 -66 -32 -113 -55 -152 -71 -337 -207 -457 -335 -76 -80 -192 -228 -192 -245 0 -19 14 -9 107 76 495 455 912 608 1333 492 139 -38 286 -120 397 -221 112 -103 239 -295 291 -440 29 -80 32 -99 32 -204 0 -64 -5 -133 -12 -154 -6 -22 -8 -42 -5 -45 3 -4 28 9 54 28 84 60 126 73 227 71 62 -1 111 -8 155 -22 76 -25 77 -25 85 -6 7 18 -26 193 -47 256 -128 373 -384 649 -745 803 -230 99 -542 131 -807 85z"/> <path d="M4105 3611 c-135 -28 -184 -45 -272 -92 -157 -84 -271 -209 -355 -389 -58 -124 -93 -311 -84 -451 4 -69 2 -100 -7 -111 -16 -21 -128 -77 -265 -134 -128 -53 -213 -103 -232 -139 -10 -19 -10 -36 -2 -79 14 -71 51 -129 104 -163 40 -27 46 -28 167 -27 210 2 460 41 606 95 53 20 80 23 225 23 210 1 298 -17 519 -108 35 -15 65 -25 68 -23 23 23 -171 183 -297 244 -25 12 -94 42 -155 66 -253 102 -332 149 -398 236 -83 109 -108 207 -87 344 34 226 213 414 450 473 87 22 271 15 351 -14 144 -51 273 -142 333 -234 17 -26 34 -47 39 -47 16 -2 6 60 -21 126 -81 199 -247 342 -455 392 -66 16 -183 22 -232 12z"/> <path d="M5601 2914 c-122 -33 -241 -128 -293 -235 -36 -75 -61 -189 -55 -253 4 -52 24 -113 32 -104 3 3 12 31 21 64 22 85 81 190 142 251 29 29 58 53 64 53 6 0 19 6 27 13 23 20 91 37 145 37 99 0 191 -75 222 -179 38 -133 -33 -280 -176 -363 -79 -46 -129 -57 -301 -68 -155 -9 -198 -27 -233 -92 -28 -52 -17 -72 37 -63 127 21 177 25 332 25 195 0 192 -1 307 101 169 150 249 333 219 504 -16 88 -41 136 -105 201 -60 59 -110 87 -193 109 -70 18 -121 18 -192 -1z"/> </g> </svg> 